<mxfile host="app.diagrams.net" modified="2023-09-25T06:35:02.979Z" agent="Mozilla/5.0 (Windows NT 10.0; Win64; x64) AppleWebKit/537.36 (KHTML, like Gecko) Chrome/117.0.0.0 Safari/537.36" version="21.7.2" etag="Yz8v8apx-ox4tXeD0i-A" type="github">
  <diagram name="Page-1" id="VWWSk02KS_eA9mR7Gnqz">
    <mxGraphModel>
      <root>
        <mxCell id="0" />
        <mxCell id="1" parent="0" />
      </root>
    </mxGraphModel>
  </diagram>
</mxfile>
